<?xml version="1.0" standalone="no"?>
<!DOCTYPE svg PUBLIC "-//W3C//DTD SVG 20010904//EN"
 "http://www.w3.org/TR/2001/REC-SVG-20010904/DTD/svg10.dtd">
<svg version="1.0" xmlns="http://www.w3.org/2000/svg"
 width="971.000000pt" height="971.000000pt" viewBox="0 0 971.000000 971.000000"
 preserveAspectRatio="xMidYMid meet">

<g transform="translate(0.000000,971.000000) scale(0.100000,-0.100000)"
fill="#000000" stroke="none">
<path d="M3350 9304 c-690 -47 -1278 -239 -1787 -581 -586 -394 -972 -925
-1127 -1548 -81 -325 -83 -700 -5 -1035 102 -437 348 -869 688 -1205 56 -55
101 -107 101 -115 0 -21 -134 -292 -205 -415 -139 -240 -308 -464 -508 -671
l-137 -142 2 -314 3 -313 282 1 c155 1 328 7 385 13 263 30 527 88 778 171
164 54 449 176 456 195 3 7 -4 48 -15 91 -24 95 -45 235 -61 404 -7 69 -13
126 -15 128 -1 2 -58 -26 -126 -62 -222 -116 -492 -215 -721 -265 -54 -12
-104 -21 -113 -21 -9 0 9 31 49 83 140 182 333 500 427 703 75 163 81 178 124
289 75 195 119 336 109 343 -65 44 -284 222 -355 289 -299 285 -500 638 -572
1004 -32 166 -31 464 1 632 153 791 872 1438 1853 1666 200 47 397 65 689 65
233 0 300 -3 435 -23 351 -50 641 -141 944 -297 390 -201 710 -483 903 -795
l53 -86 305 -6 c168 -4 320 -10 339 -13 31 -6 33 -5 26 17 -11 42 -125 271
-176 356 -253 419 -641 779 -1124 1042 -370 202 -836 344 -1300 396 -128 15
-498 26 -605 19z"/>
<path d="M5880 6884 c-644 -55 -1107 -187 -1600 -454 -416 -226 -812 -583
-1064 -960 -371 -552 -504 -1193 -380 -1820 149 -753 636 -1394 1399 -1843
103 -60 315 -163 438 -211 330 -130 647 -209 1022 -252 158 -18 653 -26 727
-11 37 8 40 6 182 -118 289 -250 517 -406 811 -556 268 -137 530 -236 808
-303 321 -79 540 -106 925 -113 l292 -6 0 323 0 323 -128 132 c-201 205 -392
454 -547 715 -58 97 -193 367 -215 431 l-13 36 93 89 c251 241 481 573 613
885 130 305 191 601 191 929 0 400 -79 731 -261 1095 -345 688 -1037 1245
-1888 1518 -200 64 -474 122 -730 153 -123 15 -573 27 -675 18z m715 -633
c936 -137 1713 -653 2055 -1363 73 -153 122 -297 152 -453 33 -174 33 -487 -1
-659 -90 -468 -359 -886 -791 -1227 -69 -55 -140 -112 -158 -127 l-34 -27 52
-145 c170 -482 391 -902 658 -1250 36 -47 70 -91 76 -98 12 -17 -18 -12 -204
34 -269 66 -446 131 -682 250 -307 154 -453 257 -853 603 -99 86 -187 161
-195 167 -11 9 -40 8 -110 -2 -52 -8 -221 -17 -375 -20 -226 -5 -307 -3 -420
10 -654 77 -1211 309 -1647 685 -302 261 -516 574 -632 924 -68 206 -81 293
-81 557 0 193 3 241 22 336 127 626 573 1166 1243 1503 313 158 664 266 995
305 72 9 144 17 160 20 17 2 163 3 325 1 242 -2 322 -6 445 -24z"/>
</g>
</svg>
